<svg width="622" height="237" viewBox="0 0 622 237" fill="none" xmlns="http://www.w3.org/2000/svg">
<rect width="622" height="237" fill="white"/>
<path d="M244.719 88.6875L171.969 43.2188L99.2188 88.6875V188.719H244.719V88.6875Z" fill="#FAEFDE"/>
<path d="M171.969 43.2188L99.2188 88.6875V106.875L171.969 61.4062L244.719 106.875V88.6875L171.969 43.2188Z" fill="#EFD8BE"/>
<path d="M172.484 136.975L124.621 104.177L172.484 74.4406L220.317 104.177L172.484 136.975Z" fill="#8B8E98"/>
<path d="M205.312 143.887C200.436 144.99 195.496 145.79 190.52 146.281L171.969 156.678L153.63 146.281C148.584 145.791 143.573 144.992 138.625 143.887L142.202 117.575L167.422 135.914C168.784 136.77 170.36 137.224 171.969 137.224C173.577 137.224 175.153 136.77 176.516 135.914L201.736 120.607L205.312 143.887Z" fill="#7E8189"/>
<path d="M226.531 139.461L220.469 148.555L214.406 139.461V131.883L220.469 128.852L226.531 131.883V139.461Z" fill="#F9E3AE"/>
<path d="M261.482 95.2047L173.575 40.6422C173.428 40.579 173.276 40.5283 173.121 40.4906C172.94 40.3692 172.747 40.2676 172.545 40.1875C172.353 40.1692 172.16 40.1692 171.969 40.1875H171.423C171.213 40.2463 171.01 40.3276 170.817 40.43C170.672 40.4699 170.53 40.5206 170.392 40.5816L82.4863 95.1441C82.1292 95.3438 81.8163 95.6137 81.5663 95.9376C81.3163 96.2615 81.1345 96.6326 81.0318 97.0286C80.9291 97.4246 80.9076 97.8374 80.9687 98.2419C81.0297 98.6464 81.172 99.0344 81.387 99.3825C81.602 99.7306 81.8852 100.032 82.2196 100.267C82.554 100.503 82.9327 100.669 83.3328 100.754C83.7329 100.839 84.1461 100.843 84.5476 100.765C84.9492 100.686 85.3306 100.527 85.6691 100.297L96.1875 93.8103V185.688H87.0938C86.2898 185.688 85.5188 186.007 84.9503 186.575C84.3819 187.144 84.0625 187.915 84.0625 188.719C84.0625 189.523 84.3819 190.294 84.9503 190.862C85.5188 191.431 86.2898 191.75 87.0938 191.75H256.844C257.648 191.75 258.419 191.431 258.987 190.862C259.556 190.294 259.875 189.523 259.875 188.719C259.875 187.915 259.556 187.144 258.987 186.575C258.419 186.007 257.648 185.688 256.844 185.688H247.75V93.8103L258.268 100.358C258.607 100.588 258.988 100.747 259.39 100.825C259.791 100.904 260.205 100.9 260.605 100.815C261.005 100.729 261.383 100.564 261.718 100.328C262.052 100.092 262.335 99.7912 262.55 99.4431C262.765 99.0951 262.908 98.7071 262.969 98.3025C263.03 97.898 263.008 97.4853 262.906 97.0893C262.803 96.6932 262.621 96.3221 262.371 95.9982C262.121 95.6743 261.808 95.4044 261.451 95.2047H261.482ZM241.687 185.688H102.25V90.0516L171.969 46.7956L241.687 90.0516V185.688Z" fill="#8D6C9F"/>
<path d="M126.5 167.5C125.696 167.5 124.925 167.819 124.357 168.388C123.788 168.956 123.469 169.727 123.469 170.531V176.594C123.469 177.398 123.788 178.169 124.357 178.737C124.925 179.306 125.696 179.625 126.5 179.625C127.304 179.625 128.075 179.306 128.643 178.737C129.212 178.169 129.531 177.398 129.531 176.594V170.531C129.531 169.727 129.212 168.956 128.643 168.388C128.075 167.819 127.304 167.5 126.5 167.5Z" fill="#8D6C9F"/>
<path d="M111.344 167.5C110.54 167.5 109.769 167.819 109.2 168.388C108.632 168.956 108.312 169.727 108.312 170.531V176.594C108.312 177.398 108.632 178.169 109.2 178.737C109.769 179.306 110.54 179.625 111.344 179.625C112.148 179.625 112.919 179.306 113.487 178.737C114.056 178.169 114.375 177.398 114.375 176.594V170.531C114.375 169.727 114.056 168.956 113.487 168.388C112.919 167.819 112.148 167.5 111.344 167.5Z" fill="#8D6C9F"/>
<path d="M141.656 167.5C140.852 167.5 140.081 167.819 139.513 168.388C138.944 168.956 138.625 169.727 138.625 170.531V176.594C138.625 177.398 138.944 178.169 139.513 178.737C140.081 179.306 140.852 179.625 141.656 179.625C142.46 179.625 143.231 179.306 143.8 178.737C144.368 178.169 144.688 177.398 144.688 176.594V170.531C144.688 169.727 144.368 168.956 143.8 168.388C143.231 167.819 142.46 167.5 141.656 167.5Z" fill="#8D6C9F"/>
<path d="M156.812 167.5C156.009 167.5 155.238 167.819 154.669 168.388C154.101 168.956 153.781 169.727 153.781 170.531V176.594C153.781 177.398 154.101 178.169 154.669 178.737C155.238 179.306 156.009 179.625 156.812 179.625C157.616 179.625 158.387 179.306 158.956 178.737C159.524 178.169 159.844 177.398 159.844 176.594V170.531C159.844 169.727 159.524 168.956 158.956 168.388C158.387 167.819 157.616 167.5 156.812 167.5Z" fill="#8D6C9F"/>
<path d="M171.969 167.5C171.165 167.5 170.394 167.819 169.825 168.388C169.257 168.956 168.938 169.727 168.938 170.531V176.594C168.938 177.398 169.257 178.169 169.825 178.737C170.394 179.306 171.165 179.625 171.969 179.625C172.773 179.625 173.544 179.306 174.112 178.737C174.681 178.169 175 177.398 175 176.594V170.531C175 169.727 174.681 168.956 174.112 168.388C173.544 167.819 172.773 167.5 171.969 167.5Z" fill="#8D6C9F"/>
<path d="M187.125 167.5C186.321 167.5 185.55 167.819 184.982 168.388C184.413 168.956 184.094 169.727 184.094 170.531V176.594C184.094 177.398 184.413 178.169 184.982 178.737C185.55 179.306 186.321 179.625 187.125 179.625C187.929 179.625 188.7 179.306 189.268 178.737C189.837 178.169 190.156 177.398 190.156 176.594V170.531C190.156 169.727 189.837 168.956 189.268 168.388C188.7 167.819 187.929 167.5 187.125 167.5Z" fill="#8D6C9F"/>
<path d="M202.281 167.5C201.477 167.5 200.706 167.819 200.138 168.388C199.569 168.956 199.25 169.727 199.25 170.531V176.594C199.25 177.398 199.569 178.169 200.138 178.737C200.706 179.306 201.477 179.625 202.281 179.625C203.085 179.625 203.856 179.306 204.425 178.737C204.993 178.169 205.312 177.398 205.312 176.594V170.531C205.312 169.727 204.993 168.956 204.425 168.388C203.856 167.819 203.085 167.5 202.281 167.5Z" fill="#8D6C9F"/>
<path d="M217.438 167.5C216.634 167.5 215.863 167.819 215.294 168.388C214.726 168.956 214.406 169.727 214.406 170.531V176.594C214.406 177.398 214.726 178.169 215.294 178.737C215.863 179.306 216.634 179.625 217.438 179.625C218.241 179.625 219.012 179.306 219.581 178.737C220.149 178.169 220.469 177.398 220.469 176.594V170.531C220.469 169.727 220.149 168.956 219.581 168.388C219.012 167.819 218.241 167.5 217.438 167.5Z" fill="#8D6C9F"/>
<path d="M229.562 176.594C229.562 177.398 229.882 178.169 230.45 178.737C231.019 179.306 231.79 179.625 232.594 179.625C233.398 179.625 234.169 179.306 234.737 178.737C235.306 178.169 235.625 177.398 235.625 176.594V170.531C235.625 169.727 235.306 168.956 234.737 168.388C234.169 167.819 233.398 167.5 232.594 167.5C231.79 167.5 231.019 167.819 230.45 168.388C229.882 168.956 229.562 169.727 229.562 170.531V176.594Z" fill="#8D6C9F"/>
<path d="M168.665 71.7125L123.681 98.3875C122.692 98.9795 121.87 99.8134 121.293 100.811C120.716 101.808 120.401 102.936 120.38 104.088C120.359 105.24 120.631 106.379 121.172 107.397C121.712 108.415 122.503 109.278 123.469 109.906L138.625 119.637L136.018 142.553C135.919 143.406 136.003 144.269 136.263 145.087C136.523 145.905 136.954 146.659 137.527 147.298C138.1 147.937 138.803 148.447 139.588 148.794C140.372 149.142 141.222 149.318 142.081 149.313H154.357C154.756 149.31 155.152 149.387 155.521 149.538C155.89 149.688 156.226 149.911 156.509 150.192L165.603 159.285C167.308 160.988 169.62 161.945 172.029 161.945C174.439 161.945 176.751 160.988 178.456 159.285L187.549 150.192C187.833 149.911 188.169 149.688 188.538 149.538C188.907 149.387 189.303 149.31 189.702 149.313H201.978C202.834 149.318 203.681 149.142 204.463 148.796C205.246 148.451 205.946 147.944 206.519 147.308C207.092 146.672 207.523 145.923 207.786 145.108C208.048 144.294 208.135 143.433 208.041 142.583L205.312 119.637L217.437 111.755V123.88C213.947 127.487 211.805 132.187 211.375 137.188C211.483 139.682 212.269 142.1 213.646 144.183C215.024 146.265 216.942 147.934 219.196 149.009L220.469 149.585L221.742 149.009C224.024 147.955 225.973 146.296 227.378 144.211C228.784 142.127 229.592 139.698 229.714 137.188C229.284 132.187 227.142 127.487 223.652 123.88V106.875C223.636 106.607 223.585 106.342 223.5 106.087C224.01 104.618 223.985 103.016 223.431 101.564C222.876 100.111 221.828 98.9007 220.469 98.145L175.576 71.6822C174.527 71.0681 173.332 70.7469 172.116 70.7522C170.9 70.7576 169.708 71.0892 168.665 71.7125V71.7125ZM202.008 143.25H189.641C187.23 143.252 184.918 144.212 183.215 145.918L174.121 155.011C173.553 155.576 172.785 155.893 171.984 155.893C171.183 155.893 170.415 155.576 169.847 155.011L160.753 145.918C159.906 145.069 158.899 144.397 157.791 143.939C156.683 143.481 155.495 143.247 154.297 143.25H142.02L144.293 123.274L168.543 138.794C169.638 139.497 170.911 139.87 172.211 139.87C173.512 139.87 174.785 139.497 175.879 138.794L199.796 123.335L202.008 143.25ZM220.711 142.735C219.812 142.114 219.07 141.292 218.544 140.334C218.018 139.377 217.722 138.31 217.68 137.218C217.93 134.487 218.985 131.892 220.711 129.761C222.449 131.885 223.505 134.484 223.742 137.218C223.695 138.319 223.387 139.393 222.845 140.352C222.302 141.311 221.54 142.127 220.62 142.735H220.711ZM203.16 95.7806L172.999 100.813C172.15 100.924 171.377 101.358 170.839 102.024C170.302 102.691 170.041 103.538 170.111 104.392C170.181 105.245 170.577 106.039 171.216 106.608C171.855 107.178 172.689 107.479 173.545 107.451H174.091L212.072 101.146L217.134 104.177L172.151 133.277L127.106 104.117L172.211 77.4416L203.16 95.7806Z" fill="#8D6C9F"/>
<path d="M292.707 150.703C287.551 150.703 283.355 149.016 280.121 145.641C276.887 142.242 275.27 137.707 275.27 132.035V130.84C275.27 127.066 275.984 123.703 277.414 120.75C278.867 117.773 280.883 115.453 283.461 113.789C286.062 112.102 288.875 111.258 291.898 111.258C296.844 111.258 300.688 112.887 303.43 116.145C306.172 119.402 307.543 124.066 307.543 130.137V132.844H281.773C281.867 136.594 282.957 139.629 285.043 141.949C287.152 144.246 289.824 145.395 293.059 145.395C295.355 145.395 297.301 144.926 298.895 143.988C300.488 143.051 301.883 141.809 303.078 140.262L307.051 143.355C303.863 148.254 299.082 150.703 292.707 150.703ZM291.898 116.602C289.273 116.602 287.07 117.562 285.289 119.484C283.508 121.383 282.406 124.055 281.984 127.5H301.039V127.008C300.852 123.703 299.961 121.148 298.367 119.344C296.773 117.516 294.617 116.602 291.898 116.602ZM327.863 125.848L336.301 111.961H343.895L331.449 130.77L344.281 150H336.758L327.969 135.762L319.18 150H311.621L324.453 130.77L312.008 111.961H319.531L327.863 125.848ZM374.305 150C373.93 149.25 373.625 147.914 373.391 145.992C370.367 149.133 366.758 150.703 362.562 150.703C358.812 150.703 355.73 149.648 353.316 147.539C350.926 145.406 349.73 142.711 349.73 139.453C349.73 135.492 351.23 132.422 354.23 130.242C357.254 128.039 361.496 126.938 366.957 126.938H373.285V123.949C373.285 121.676 372.605 119.871 371.246 118.535C369.887 117.176 367.883 116.496 365.234 116.496C362.914 116.496 360.969 117.082 359.398 118.254C357.828 119.426 357.043 120.844 357.043 122.508H350.504C350.504 120.609 351.172 118.781 352.508 117.023C353.867 115.242 355.695 113.836 357.992 112.805C360.312 111.773 362.855 111.258 365.621 111.258C370.004 111.258 373.438 112.359 375.922 114.562C378.406 116.742 379.695 119.754 379.789 123.598V141.105C379.789 144.598 380.234 147.375 381.125 149.438V150H374.305ZM363.512 145.043C365.551 145.043 367.484 144.516 369.312 143.461C371.141 142.406 372.465 141.035 373.285 139.348V131.543H368.188C360.219 131.543 356.234 133.875 356.234 138.539C356.234 140.578 356.914 142.172 358.273 143.32C359.633 144.469 361.379 145.043 363.512 145.043ZM396.102 111.961L396.277 116.18C399.066 112.898 402.828 111.258 407.562 111.258C412.883 111.258 416.504 113.297 418.426 117.375C419.691 115.547 421.332 114.07 423.348 112.945C425.387 111.82 427.789 111.258 430.555 111.258C438.898 111.258 443.141 115.676 443.281 124.512V150H436.777V124.898C436.777 122.18 436.156 120.152 434.914 118.816C433.672 117.457 431.586 116.777 428.656 116.777C426.242 116.777 424.238 117.504 422.645 118.957C421.051 120.387 420.125 122.32 419.867 124.758V150H413.328V125.074C413.328 119.543 410.621 116.777 405.207 116.777C400.941 116.777 398.023 118.594 396.453 122.227V150H389.949V111.961H396.102ZM460.191 150H453.688V111.961H460.191V150ZM453.16 101.871C453.16 100.816 453.477 99.9258 454.109 99.1992C454.766 98.4727 455.727 98.1094 456.992 98.1094C458.258 98.1094 459.219 98.4727 459.875 99.1992C460.531 99.9258 460.859 100.816 460.859 101.871C460.859 102.926 460.531 103.805 459.875 104.508C459.219 105.211 458.258 105.562 456.992 105.562C455.727 105.562 454.766 105.211 454.109 104.508C453.477 103.805 453.16 102.926 453.16 101.871ZM485.891 145.395C488.211 145.395 490.238 144.691 491.973 143.285C493.707 141.879 494.668 140.121 494.855 138.012H501.008C500.891 140.191 500.141 142.266 498.758 144.234C497.375 146.203 495.523 147.773 493.203 148.945C490.906 150.117 488.469 150.703 485.891 150.703C480.711 150.703 476.586 148.98 473.516 145.535C470.469 142.066 468.945 137.332 468.945 131.332V130.242C468.945 126.539 469.625 123.246 470.984 120.363C472.344 117.48 474.289 115.242 476.82 113.648C479.375 112.055 482.387 111.258 485.855 111.258C490.121 111.258 493.66 112.535 496.473 115.09C499.309 117.645 500.82 120.961 501.008 125.039H494.855C494.668 122.578 493.73 120.562 492.043 118.992C490.379 117.398 488.316 116.602 485.855 116.602C482.551 116.602 479.984 117.797 478.156 120.188C476.352 122.555 475.449 125.988 475.449 130.488V131.719C475.449 136.102 476.352 139.477 478.156 141.844C479.961 144.211 482.539 145.395 485.891 145.395ZM514.824 116.566C517.707 113.027 521.457 111.258 526.074 111.258C534.113 111.258 538.168 115.793 538.238 124.863V150H531.734V124.828C531.711 122.086 531.078 120.059 529.836 118.746C528.617 117.434 526.707 116.777 524.105 116.777C521.996 116.777 520.145 117.34 518.551 118.465C516.957 119.59 515.715 121.066 514.824 122.895V150H508.32V96H514.824V116.566Z" fill="#8D6C9F"/>
</svg>
