<svg width="460" height="153" viewBox="0 0 460 153" fill="none" xmlns="http://www.w3.org/2000/svg">
<g clip-path="url(#clip0)">
<rect width="460" height="153" fill="white"/>
<path d="M166.719 49.6875L93.9688 4.21875L21.2188 49.6875V149.719H166.719V49.6875Z" fill="#FAEFDE"/>
<path d="M93.9688 4.21875L21.2188 49.6875V67.875L93.9688 22.4062L166.719 67.875V49.6875L93.9688 4.21875Z" fill="#EFD8BE"/>
<path d="M94.4841 97.9753L46.6206 65.1772L94.4841 35.4406L142.317 65.1772L94.4841 97.9753Z" fill="#8B8E98"/>
<path d="M127.312 104.887C122.436 105.99 117.496 106.79 112.52 107.281L93.9688 117.678L75.6297 107.281C70.5838 106.791 65.5727 105.992 60.625 104.887L64.2019 78.5753L89.4219 96.9144C90.7841 97.7701 92.3601 98.224 93.9688 98.224C95.5774 98.224 97.1534 97.7701 98.5156 96.9144L123.736 81.6066L127.312 104.887Z" fill="#7E8189"/>
<path d="M148.531 100.461L142.469 109.555L136.406 100.461V92.8828L142.469 89.8516L148.531 92.8828V100.461Z" fill="#F9E3AE"/>
<path d="M183.482 56.2047L95.5753 1.64219C95.4283 1.57899 95.2762 1.52829 95.1206 1.49063C94.9401 1.36921 94.747 1.26759 94.5447 1.18751C94.3531 1.16923 94.1603 1.16923 93.9687 1.18751H93.4231C93.2129 1.24628 93.0096 1.32758 92.8169 1.43001C92.6718 1.46993 92.53 1.52059 92.3925 1.58157L4.48624 56.1441C4.12918 56.3438 3.81624 56.6137 3.56628 56.9376C3.31632 57.2615 3.13451 57.6326 3.0318 58.0286C2.92909 58.4246 2.90761 58.8374 2.96866 59.2419C3.0297 59.6464 3.172 60.0344 3.38699 60.3825C3.60198 60.7306 3.88521 61.0316 4.21961 61.2673C4.55401 61.503 4.93266 61.6685 5.33276 61.754C5.73285 61.8395 6.1461 61.843 6.54762 61.7645C6.94914 61.686 7.33061 61.5271 7.66905 61.2972L18.1875 54.8103V146.688H9.09374C8.2898 146.688 7.51879 147.007 6.95032 147.575C6.38185 148.144 6.06249 148.915 6.06249 149.719C6.06249 150.523 6.38185 151.294 6.95032 151.862C7.51879 152.431 8.2898 152.75 9.09374 152.75H178.844C179.648 152.75 180.419 152.431 180.987 151.862C181.556 151.294 181.875 150.523 181.875 149.719C181.875 148.915 181.556 148.144 180.987 147.575C180.419 147.007 179.648 146.688 178.844 146.688H169.75V54.8103L180.268 61.3578C180.607 61.5877 180.988 61.7467 181.39 61.8252C181.791 61.9037 182.205 61.9001 182.605 61.8146C183.005 61.7292 183.383 61.5636 183.718 61.3279C184.052 61.0922 184.335 60.7912 184.55 60.4431C184.765 60.0951 184.908 59.7071 184.969 59.3025C185.03 58.898 185.008 58.4853 184.906 58.0893C184.803 57.6932 184.621 57.3221 184.371 56.9982C184.121 56.6743 183.808 56.4044 183.451 56.2047H183.482ZM163.687 146.688H24.25V51.0516L93.9687 7.79563L163.687 51.0516V146.688Z" fill="#8D6C9F"/>
<path d="M48.5 128.5C47.6961 128.5 46.9251 128.819 46.3566 129.388C45.7881 129.956 45.4688 130.727 45.4688 131.531V137.594C45.4688 138.398 45.7881 139.169 46.3566 139.737C46.9251 140.306 47.6961 140.625 48.5 140.625C49.3039 140.625 50.075 140.306 50.6434 139.737C51.2119 139.169 51.5312 138.398 51.5312 137.594V131.531C51.5312 130.727 51.2119 129.956 50.6434 129.388C50.075 128.819 49.3039 128.5 48.5 128.5Z" fill="#8D6C9F"/>
<path d="M33.3438 128.5C32.5398 128.5 31.7688 128.819 31.2003 129.388C30.6319 129.956 30.3125 130.727 30.3125 131.531V137.594C30.3125 138.398 30.6319 139.169 31.2003 139.737C31.7688 140.306 32.5398 140.625 33.3438 140.625C34.1477 140.625 34.9187 140.306 35.4872 139.737C36.0556 139.169 36.375 138.398 36.375 137.594V131.531C36.375 130.727 36.0556 129.956 35.4872 129.388C34.9187 128.819 34.1477 128.5 33.3438 128.5Z" fill="#8D6C9F"/>
<path d="M63.6562 128.5C62.8523 128.5 62.0813 128.819 61.5128 129.388C60.9444 129.956 60.625 130.727 60.625 131.531V137.594C60.625 138.398 60.9444 139.169 61.5128 139.737C62.0813 140.306 62.8523 140.625 63.6562 140.625C64.4602 140.625 65.2312 140.306 65.7997 139.737C66.3681 139.169 66.6875 138.398 66.6875 137.594V131.531C66.6875 130.727 66.3681 129.956 65.7997 129.388C65.2312 128.819 64.4602 128.5 63.6562 128.5Z" fill="#8D6C9F"/>
<path d="M78.8125 128.5C78.0086 128.5 77.2375 128.819 76.6691 129.388C76.1006 129.956 75.7812 130.727 75.7812 131.531V137.594C75.7812 138.398 76.1006 139.169 76.6691 139.737C77.2375 140.306 78.0086 140.625 78.8125 140.625C79.6164 140.625 80.3875 140.306 80.9559 139.737C81.5244 139.169 81.8438 138.398 81.8438 137.594V131.531C81.8438 130.727 81.5244 129.956 80.9559 129.388C80.3875 128.819 79.6164 128.5 78.8125 128.5Z" fill="#8D6C9F"/>
<path d="M93.9688 128.5C93.1648 128.5 92.3938 128.819 91.8253 129.388C91.2569 129.956 90.9375 130.727 90.9375 131.531V137.594C90.9375 138.398 91.2569 139.169 91.8253 139.737C92.3938 140.306 93.1648 140.625 93.9688 140.625C94.7727 140.625 95.5437 140.306 96.1122 139.737C96.6806 139.169 97 138.398 97 137.594V131.531C97 130.727 96.6806 129.956 96.1122 129.388C95.5437 128.819 94.7727 128.5 93.9688 128.5Z" fill="#8D6C9F"/>
<path d="M109.125 128.5C108.321 128.5 107.55 128.819 106.982 129.388C106.413 129.956 106.094 130.727 106.094 131.531V137.594C106.094 138.398 106.413 139.169 106.982 139.737C107.55 140.306 108.321 140.625 109.125 140.625C109.929 140.625 110.7 140.306 111.268 139.737C111.837 139.169 112.156 138.398 112.156 137.594V131.531C112.156 130.727 111.837 129.956 111.268 129.388C110.7 128.819 109.929 128.5 109.125 128.5Z" fill="#8D6C9F"/>
<path d="M124.281 128.5C123.477 128.5 122.706 128.819 122.138 129.388C121.569 129.956 121.25 130.727 121.25 131.531V137.594C121.25 138.398 121.569 139.169 122.138 139.737C122.706 140.306 123.477 140.625 124.281 140.625C125.085 140.625 125.856 140.306 126.425 139.737C126.993 139.169 127.312 138.398 127.312 137.594V131.531C127.312 130.727 126.993 129.956 126.425 129.388C125.856 128.819 125.085 128.5 124.281 128.5Z" fill="#8D6C9F"/>
<path d="M139.438 128.5C138.634 128.5 137.863 128.819 137.294 129.388C136.726 129.956 136.406 130.727 136.406 131.531V137.594C136.406 138.398 136.726 139.169 137.294 139.737C137.863 140.306 138.634 140.625 139.438 140.625C140.241 140.625 141.012 140.306 141.581 139.737C142.149 139.169 142.469 138.398 142.469 137.594V131.531C142.469 130.727 142.149 129.956 141.581 129.388C141.012 128.819 140.241 128.5 139.438 128.5Z" fill="#8D6C9F"/>
<path d="M151.562 137.594C151.562 138.398 151.882 139.169 152.45 139.737C153.019 140.306 153.79 140.625 154.594 140.625C155.398 140.625 156.169 140.306 156.737 139.737C157.306 139.169 157.625 138.398 157.625 137.594V131.531C157.625 130.727 157.306 129.956 156.737 129.388C156.169 128.819 155.398 128.5 154.594 128.5C153.79 128.5 153.019 128.819 152.45 129.388C151.882 129.956 151.562 130.727 151.562 131.531V137.594Z" fill="#8D6C9F"/>
<path d="M90.6647 32.7125L45.6809 59.3875C44.6922 59.9795 43.8704 60.8134 43.293 61.8107C42.7155 62.808 42.4014 63.9358 42.3802 65.088C42.3589 66.2402 42.6313 67.3789 43.1717 68.3968C43.712 69.4146 44.5025 70.2783 45.4687 70.9063L60.625 80.6366L58.0181 103.553C57.9194 104.406 58.0029 105.269 58.263 106.087C58.5231 106.905 58.954 107.659 59.5271 108.298C60.1002 108.937 60.8025 109.447 61.5875 109.794C62.3725 110.142 63.2223 110.318 64.0806 110.313H76.3572C76.7561 110.31 77.1516 110.387 77.5209 110.538C77.8902 110.688 78.2261 110.911 78.5094 111.192L87.6031 120.285C89.3082 121.988 91.6195 122.945 94.0294 122.945C96.4392 122.945 98.7505 121.988 100.456 120.285L109.549 111.192C109.833 110.911 110.169 110.688 110.538 110.538C110.907 110.387 111.303 110.31 111.702 110.313H123.978C124.834 110.318 125.681 110.142 126.463 109.796C127.246 109.451 127.946 108.944 128.519 108.308C129.092 107.672 129.523 106.923 129.786 106.108C130.048 105.294 130.135 104.433 130.041 103.583L127.312 80.6366L139.437 72.7553V84.8803C135.947 88.4869 133.805 93.1866 133.375 98.1875C133.483 100.682 134.269 103.1 135.646 105.183C137.024 107.265 138.942 108.934 141.196 110.009L142.469 110.585L143.742 110.009C146.024 108.955 147.973 107.296 149.378 105.211C150.784 103.127 151.592 100.698 151.714 98.1875C151.284 93.1866 149.142 88.4869 145.652 84.8803V67.875C145.636 67.6067 145.585 67.3417 145.5 67.0869C146.01 65.618 145.985 64.0164 145.431 62.5638C144.876 61.1112 143.828 59.9007 142.469 59.145L97.5759 32.6822C96.5267 32.0681 95.3319 31.7469 94.1162 31.7522C92.9004 31.7576 91.7085 32.0892 90.6647 32.7125V32.7125ZM124.008 104.25H111.641C109.23 104.252 106.918 105.212 105.215 106.918L96.1209 116.011C95.553 116.576 94.7847 116.893 93.9839 116.893C93.1831 116.893 92.4148 116.576 91.8469 116.011L82.7531 106.918C81.9059 106.069 80.8993 105.397 79.7912 104.939C78.6831 104.481 77.4955 104.247 76.2966 104.25H64.02L66.2934 84.2741L90.5434 99.7941C91.6378 100.497 92.9108 100.87 94.2112 100.87C95.5116 100.87 96.7847 100.497 97.8791 99.7941L121.796 84.3347L124.008 104.25ZM142.711 103.735C141.812 103.114 141.07 102.292 140.544 101.334C140.018 100.377 139.722 99.3097 139.68 98.2178C139.93 95.487 140.985 92.8918 142.711 90.761C144.449 92.8851 145.505 95.4839 145.742 98.2178C145.695 99.3187 145.387 100.393 144.845 101.352C144.302 102.311 143.54 103.127 142.62 103.735H142.711ZM125.16 56.7806L94.9994 61.8125C94.1505 61.9242 93.3771 62.3581 92.8394 63.0244C92.3017 63.6906 92.0409 64.5382 92.111 65.3916C92.1811 66.2449 92.5768 67.0385 93.2161 67.6081C93.8554 68.1776 94.6893 68.4794 95.545 68.451H96.0906L134.072 62.146L139.134 65.1772L94.1506 94.2772L49.1063 65.1166L94.2112 38.4416L125.16 56.7806Z" fill="#8D6C9F"/>
<path d="M214.707 111.703C209.551 111.703 205.355 110.016 202.121 106.641C198.887 103.242 197.27 98.707 197.27 93.0352V91.8398C197.27 88.0664 197.984 84.7031 199.414 81.75C200.867 78.7734 202.883 76.4531 205.461 74.7891C208.062 73.1016 210.875 72.2578 213.898 72.2578C218.844 72.2578 222.688 73.8867 225.43 77.1445C228.172 80.4023 229.543 85.0664 229.543 91.1367V93.8438H203.773C203.867 97.5938 204.957 100.629 207.043 102.949C209.152 105.246 211.824 106.395 215.059 106.395C217.355 106.395 219.301 105.926 220.895 104.988C222.488 104.051 223.883 102.809 225.078 101.262L229.051 104.355C225.863 109.254 221.082 111.703 214.707 111.703ZM213.898 77.6016C211.273 77.6016 209.07 78.5625 207.289 80.4844C205.508 82.3828 204.406 85.0547 203.984 88.5H223.039V88.0078C222.852 84.7031 221.961 82.1484 220.367 80.3438C218.773 78.5156 216.617 77.6016 213.898 77.6016ZM249.863 86.8477L258.301 72.9609H265.895L253.449 91.7695L266.281 111H258.758L249.969 96.7617L241.18 111H233.621L246.453 91.7695L234.008 72.9609H241.531L249.863 86.8477ZM296.305 111C295.93 110.25 295.625 108.914 295.391 106.992C292.367 110.133 288.758 111.703 284.562 111.703C280.812 111.703 277.73 110.648 275.316 108.539C272.926 106.406 271.73 103.711 271.73 100.453C271.73 96.4922 273.23 93.4219 276.23 91.2422C279.254 89.0391 283.496 87.9375 288.957 87.9375H295.285V84.9492C295.285 82.6758 294.605 80.8711 293.246 79.5352C291.887 78.1758 289.883 77.4961 287.234 77.4961C284.914 77.4961 282.969 78.082 281.398 79.2539C279.828 80.4258 279.043 81.8438 279.043 83.5078H272.504C272.504 81.6094 273.172 79.7812 274.508 78.0234C275.867 76.2422 277.695 74.8359 279.992 73.8047C282.312 72.7734 284.855 72.2578 287.621 72.2578C292.004 72.2578 295.438 73.3594 297.922 75.5625C300.406 77.7422 301.695 80.7539 301.789 84.5977V102.105C301.789 105.598 302.234 108.375 303.125 110.438V111H296.305ZM285.512 106.043C287.551 106.043 289.484 105.516 291.312 104.461C293.141 103.406 294.465 102.035 295.285 100.348V92.543H290.188C282.219 92.543 278.234 94.875 278.234 99.5391C278.234 101.578 278.914 103.172 280.273 104.32C281.633 105.469 283.379 106.043 285.512 106.043ZM318.102 72.9609L318.277 77.1797C321.066 73.8984 324.828 72.2578 329.562 72.2578C334.883 72.2578 338.504 74.2969 340.426 78.375C341.691 76.5469 343.332 75.0703 345.348 73.9453C347.387 72.8203 349.789 72.2578 352.555 72.2578C360.898 72.2578 365.141 76.6758 365.281 85.5117V111H358.777V85.8984C358.777 83.1797 358.156 81.1523 356.914 79.8164C355.672 78.457 353.586 77.7773 350.656 77.7773C348.242 77.7773 346.238 78.5039 344.645 79.957C343.051 81.3867 342.125 83.3203 341.867 85.7578V111H335.328V86.0742C335.328 80.543 332.621 77.7773 327.207 77.7773C322.941 77.7773 320.023 79.5938 318.453 83.2266V111H311.949V72.9609H318.102ZM382.191 111H375.688V72.9609H382.191V111ZM375.16 62.8711C375.16 61.8164 375.477 60.9258 376.109 60.1992C376.766 59.4727 377.727 59.1094 378.992 59.1094C380.258 59.1094 381.219 59.4727 381.875 60.1992C382.531 60.9258 382.859 61.8164 382.859 62.8711C382.859 63.9258 382.531 64.8047 381.875 65.5078C381.219 66.2109 380.258 66.5625 378.992 66.5625C377.727 66.5625 376.766 66.2109 376.109 65.5078C375.477 64.8047 375.16 63.9258 375.16 62.8711ZM407.891 106.395C410.211 106.395 412.238 105.691 413.973 104.285C415.707 102.879 416.668 101.121 416.855 99.0117H423.008C422.891 101.191 422.141 103.266 420.758 105.234C419.375 107.203 417.523 108.773 415.203 109.945C412.906 111.117 410.469 111.703 407.891 111.703C402.711 111.703 398.586 109.98 395.516 106.535C392.469 103.066 390.945 98.332 390.945 92.332V91.2422C390.945 87.5391 391.625 84.2461 392.984 81.3633C394.344 78.4805 396.289 76.2422 398.82 74.6484C401.375 73.0547 404.387 72.2578 407.855 72.2578C412.121 72.2578 415.66 73.5352 418.473 76.0898C421.309 78.6445 422.82 81.9609 423.008 86.0391H416.855C416.668 83.5781 415.73 81.5625 414.043 79.9922C412.379 78.3984 410.316 77.6016 407.855 77.6016C404.551 77.6016 401.984 78.7969 400.156 81.1875C398.352 83.5547 397.449 86.9883 397.449 91.4883V92.7188C397.449 97.1016 398.352 100.477 400.156 102.844C401.961 105.211 404.539 106.395 407.891 106.395ZM436.824 77.5664C439.707 74.0273 443.457 72.2578 448.074 72.2578C456.113 72.2578 460.168 76.793 460.238 85.8633V111H453.734V85.8281C453.711 83.0859 453.078 81.0586 451.836 79.7461C450.617 78.4336 448.707 77.7773 446.105 77.7773C443.996 77.7773 442.145 78.3398 440.551 79.4648C438.957 80.5898 437.715 82.0664 436.824 83.8945V111H430.32V57H436.824V77.5664Z" fill="#8D6C9F"/>
</g>
<defs>
<clipPath id="clip0">
<rect width="460" height="153" fill="white"/>
</clipPath>
</defs>
</svg>
