<?xml version="1.0"?>
<svg xmlns="http://www.w3.org/2000/svg" id="Layer_1" data-name="Layer 1" viewBox="0 0 64 64"><title>Icons8 RSL Colored Part 9</title><polygon points="55 22 31 7 7 22 7 55 55 55 55 22" style="fill:#faefde;"/><polygon points="31 7 7 22 7 28 31 13 55 28 55 22 31 7" style="fill:#efd8be;"/><polygon points="31.17 37.93 15.38 27.11 31.17 17.3 46.95 27.11 31.17 37.93" style="fill:#8b8e98;"/><path d="M42,40.21a39.82,39.82,0,0,1-4.88.79L31,44.43,24.95,41A40.78,40.78,0,0,1,20,40.21l1.18-8.68,8.32,6.05a2.82,2.82,0,0,0,3,0l8.32-5.05Z" style="fill:#7e8189;"/><polygon points="49 38.75 47 41.75 45 38.75 45 36.25 47 35.25 49 36.25 49 38.75" style="fill:#f9e3ae;"/><path d="M60.53,24.15l-29-18a.94.94,0,0,0-.15-.05A1,1,0,0,0,31.19,6,1,1,0,0,0,31,6h-.18a1,1,0,0,0-.2.08,1,1,0,0,0-.14.05l-29,18a1,1,0,1,0,1.05,1.7L6,23.69V54H3a1,1,0,0,0,0,2H59a1,1,0,0,0,0-2H56V23.69l3.47,2.16a1,1,0,1,0,1.05-1.7ZM54,54H8V22.45L31,8.18,54,22.45Z" style="fill:#8d6c9f;"/><path d="M16,48a1,1,0,0,0-1,1v2a1,1,0,0,0,2,0V49A1,1,0,0,0,16,48Z" style="fill:#8d6c9f;"/><path d="M11,48a1,1,0,0,0-1,1v2a1,1,0,0,0,2,0V49A1,1,0,0,0,11,48Z" style="fill:#8d6c9f;"/><path d="M21,48a1,1,0,0,0-1,1v2a1,1,0,0,0,2,0V49A1,1,0,0,0,21,48Z" style="fill:#8d6c9f;"/><path d="M26,48a1,1,0,0,0-1,1v2a1,1,0,0,0,2,0V49A1,1,0,0,0,26,48Z" style="fill:#8d6c9f;"/><path d="M31,48a1,1,0,0,0-1,1v2a1,1,0,0,0,2,0V49A1,1,0,0,0,31,48Z" style="fill:#8d6c9f;"/><path d="M36,48a1,1,0,0,0-1,1v2a1,1,0,0,0,2,0V49A1,1,0,0,0,36,48Z" style="fill:#8d6c9f;"/><path d="M41,48a1,1,0,0,0-1,1v2a1,1,0,0,0,2,0V49A1,1,0,0,0,41,48Z" style="fill:#8d6c9f;"/><path d="M46,48a1,1,0,0,0-1,1v2a1,1,0,0,0,2,0V49A1,1,0,0,0,46,48Z" style="fill:#8d6c9f;"/><path d="M50,51a1,1,0,0,0,2,0V49a1,1,0,0,0-2,0Z" style="fill:#8d6c9f;"/><path d="M29.91,16.4,15.07,25.2A2.24,2.24,0,0,0,15,29l5,3.21-.86,7.56a2,2,0,0,0,2,2.23h4.05a1,1,0,0,1,.71.29l3,3a3,3,0,0,0,4.24,0l3-3a1,1,0,0,1,.71-.29h4.05a2,2,0,0,0,2-2.22L42,32.21l4-2.6v4a7.2,7.2,0,0,0-2,4.39,4.54,4.54,0,0,0,2.58,3.9l.42.19.42-.19A4.54,4.54,0,0,0,50.05,38a7.2,7.2,0,0,0-2-4.39V28a1,1,0,0,0-.05-.26,2.18,2.18,0,0,0-1-2.62L32.19,16.39A2.24,2.24,0,0,0,29.91,16.4Zm11,23.6H36.83a3,3,0,0,0-2.12.88l-3,3a1,1,0,0,1-1.41,0l-3-3A3,3,0,0,0,25.17,40H21.12l.75-6.59,8,5.12h0a2.24,2.24,0,0,0,2.42,0l7.89-5.1Zm6.17-.17a2.32,2.32,0,0,1-1-1.82,4.57,4.57,0,0,1,1-2.46,4.5,4.5,0,0,1,1,2.46A2.3,2.3,0,0,1,47.05,39.83ZM41.29,24.34,31.34,26a1.1,1.1,0,0,0,.18,2.19l.18,0,12.53-2.08h0l1.67,1-14.84,9.6h0L16.2,27.09l14.88-8.8Z" style="fill:#8d6c9f;"/></svg>
